<?xml version="1.0" encoding="utf-8"?>
<!-- Generator: Adobe Illustrator 17.0.0, SVG Export Plug-In . SVG Version: 6.00 Build 0)  -->
<!DOCTYPE svg PUBLIC "-//W3C//DTD SVG 1.1//EN" "http://www.w3.org/Graphics/SVG/1.1/DTD/svg11.dtd">
<svg version="1.1" id="图层_1" xmlns="http://www.w3.org/2000/svg" xmlns:xlink="http://www.w3.org/1999/xlink" x="0px" y="0px"
	 width="32px" height="32px" viewBox="0 0 32 32" enable-background="new 0 0 32 32" xml:space="preserve">
<g>
	<g>
		<path fill="#5D5D5D" d="M12.772,17.257c-0.23,0-0.46-0.084-0.642-0.253L1.157,6.785c-0.789-0.819-1.858-2.758-0.526-4.5
			L0.703,2.19c0.733-0.967,1.42-1.601,4.189-1.601h15.51c0.52,0,0.941,0.421,0.941,0.941s-0.421,0.941-0.941,0.941H4.892
			c-2.04,0-2.284,0.322-2.688,0.855L2.127,3.428c-0.695,0.909,0.34,2.006,0.351,2.017l10.935,10.183
			c0.381,0.354,0.402,0.95,0.047,1.33C13.275,17.156,13.023,17.257,12.772,17.257z"/>
	</g>
	<g>
		<path fill="#5D5D5D" d="M12.772,28.541c-0.52,0-0.941-0.421-0.941-0.941V16.316c0-0.52,0.421-0.941,0.941-0.941
			s0.941,0.421,0.941,0.941v11.284C13.713,28.12,13.291,28.541,12.772,28.541z"/>
	</g>
	<g>
		<path fill="#5D5D5D" d="M19.252,31.413c-0.127,0-0.257-0.026-0.381-0.081L12.39,28.46c-0.475-0.21-0.69-0.767-0.479-1.242
			c0.21-0.475,0.767-0.69,1.242-0.479l6.481,2.872c0.475,0.21,0.69,0.767,0.479,1.242C19.957,31.204,19.613,31.413,19.252,31.413z"
			/>
	</g>
	<g>
		<path fill="#5D5D5D" d="M19.252,31.413c-0.52,0-0.941-0.421-0.941-0.941V16.316c0-0.52,0.421-0.941,0.941-0.941
			c0.52,0,0.941,0.421,0.941,0.941v14.156C20.193,30.992,19.772,31.413,19.252,31.413z"/>
	</g>
	<g>
		<path fill="#5D5D5D" d="M19.253,17.257c-0.254,0-0.507-0.102-0.693-0.304c-0.352-0.382-0.327-0.977,0.055-1.329
			c0.09-0.084,9.036-8.318,10.494-9.816c0.853-0.876,1.019-1.595,1.008-2.042c-0.01-0.41-0.174-0.706-0.325-0.847
			c-0.372-0.347-1.261-0.445-1.615-0.448h-2.266c-0.52,0-0.941-0.421-0.941-0.941s0.421-0.941,0.941-0.941h2.252
			c0.176-0.01,1.892-0.001,2.914,0.954c0.565,0.527,0.902,1.321,0.922,2.177c0.02,0.81-0.232,2.056-1.541,3.401
			c-1.494,1.535-10.198,9.548-10.568,9.888C19.709,17.175,19.48,17.257,19.253,17.257z"/>
	</g>
</g>
</svg>
